<svg xmlns="http://www.w3.org/2000/svg" xmlns:xlink="http://www.w3.org/1999/xlink" width="58.76" height="63.736" viewBox="0 0 58.76 63.736">
  <defs>
    <filter id="Path_107031" x="0" y="0" width="58.76" height="63.736" filterUnits="userSpaceOnUse">
      <feOffset input="SourceAlpha"/>
      <feGaussianBlur stdDeviation="5" result="blur"/>
      <feFlood flood-color="#34544f"/>
      <feComposite operator="in" in2="blur"/>
      <feComposite in="SourceGraphic"/>
    </filter>
  </defs>
  <g id="Group_1104" data-name="Group 1104" transform="translate(-1898.674 521.735) rotate(-90)">
    <g transform="matrix(0, 1, -1, 0, 521.74, 1898.67)" filter="url(#Path_107031)">
      <path id="Path_107031-2" data-name="Path 107031" d="M1969.262,1535.51s6.376,2.274,16.752,2.334a69.388,69.388,0,0,0,16.984-1.563c-1.066-15.356-11.226-27.147-15.792-27.147S1970.33,1523.059,1969.262,1535.51Z" transform="translate(-1494.13 2018) rotate(-90)" fill="#355651"/>
    </g>
    <path id="Path_107030" data-name="Path 107030" d="M0,20.154a42.342,42.342,0,0,0,12.8,1.783,53.019,53.019,0,0,0,12.978-1.195C24.963,9.01,17.2,0,13.711,0S.815,10.64,0,20.154Z" transform="translate(502.971 1944.633) rotate(180)" fill="#6cd1c1"/>
  </g>
</svg>
