<svg id="icons8-discord-new" xmlns="http://www.w3.org/2000/svg" width="22.923" height="16.659" viewBox="0 0 22.923 16.659">
  <path id="icons8-discord-new-2" data-name="icons8-discord-new" d="M21.828,9.459a2.948,2.948,0,0,0-1.368-1.115,18.037,18.037,0,0,0-3.2-1,1.494,1.494,0,0,0-1.622.8l-.078.152a16.689,16.689,0,0,0-2.271-.081,17.015,17.015,0,0,0-2.3.081l-.078-.152a1.494,1.494,0,0,0-1.621-.8,17.943,17.943,0,0,0-3.2,1A2.95,2.95,0,0,0,4.72,9.46a17.032,17.032,0,0,0-2.8,11.626.494.494,0,0,0,.228.366,23.549,23.549,0,0,0,4.89,2.44,1.493,1.493,0,0,0,1.739-.608l.678-1.039a11.01,11.01,0,0,1-1.572-.733.494.494,0,1,1,.49-.858,9.872,9.872,0,0,0,9.83,0,.494.494,0,1,1,.49.858,10.939,10.939,0,0,1-1.627.753l.7,1.039a1.509,1.509,0,0,0,1.25.671,1.471,1.471,0,0,0,.476-.08,23.534,23.534,0,0,0,4.9-2.444.494.494,0,0,0,.228-.366A17.028,17.028,0,0,0,21.828,9.459ZM10.116,18.029A2.035,2.035,0,0,1,8.38,15.806a2.035,2.035,0,0,1,1.736-2.222,2.035,2.035,0,0,1,1.736,2.222A2.035,2.035,0,0,1,10.116,18.029Zm6.424-.013A2.039,2.039,0,0,1,14.82,15.78a2.039,2.039,0,0,1,1.719-2.236,2.039,2.039,0,0,1,1.719,2.236A2.039,2.039,0,0,1,16.539,18.016Z" transform="translate(-1.812 -7.318)" fill="#4e656d"/>
</svg>
