<svg id="OUTLINE_copy_2" xmlns="http://www.w3.org/2000/svg" width="23.618" height="23.618" viewBox="0 0 23.618 23.618">
  <path id="Path_94263" data-name="Path 94263" d="M18.047,15.721a3.567,3.567,0,0,1-7.13,0,3.343,3.343,0,0,1,.148-.985l-.894-.194v5.02c0,.252.108.359.359.359h7.888c.251,0,.359-.107.359-.359v-5.02l-.877.194A3.371,3.371,0,0,1,18.047,15.721Z" transform="translate(-2.664 -3.809)" fill="#c7d0d8"/>
  <ellipse id="Ellipse_447" data-name="Ellipse 447" cx="2.304" cy="2.233" rx="2.304" ry="2.233" transform="translate(9.514 9.555)" fill="#c7d0d8"/>
  <path id="Path_94264" data-name="Path 94264" d="M11.809,0A11.809,11.809,0,1,0,23.618,11.809,11.809,11.809,0,0,0,11.809,0Zm5.737,16.111a1.412,1.412,0,0,1-1.434,1.434H7.507a1.412,1.412,0,0,1-1.434-1.434V7.506A1.412,1.412,0,0,1,7.507,6.072h8.605a1.412,1.412,0,0,1,1.434,1.434Z" transform="translate(0 0)" fill="#c7d0d8"/>
  <path id="Path_94265" data-name="Path 94265" d="M20.708,10.17H19.273a.358.358,0,0,0-.359.359v1.434a.358.358,0,0,0,.359.359h1.434a.358.358,0,0,0,.359-.359V10.529a.359.359,0,0,0-.358-.359Z" transform="translate(-4.954 -2.664)" fill="#c7d0d8"/>
</svg>
