<svg xmlns="http://www.w3.org/2000/svg" width="17.317" height="17.318" viewBox="0 0 17.317 17.318">
  <path id="Path_395" data-name="Path 395" d="M3530.3,901.3a4.472,4.472,0,0,0-.231-1.418,4.317,4.317,0,0,0-1.988-2.381,7.918,7.918,0,0,0-3.969-.556h-6.225a6.154,6.154,0,0,0-1.661.158,4.646,4.646,0,0,0-1.447.68,4.029,4.029,0,0,0-.929.915A4.574,4.574,0,0,0,3513,901c-.019.241,0,.482,0,.723v6.77c0,.341.009.683,0,1.024a6.224,6.224,0,0,0,.019.752q.012.124.032.247a4.529,4.529,0,0,0,.112.506,4.447,4.447,0,0,0,.144.469,4.205,4.205,0,0,0,3.325,2.7,4.951,4.951,0,0,0,.874.065q4.183.007,8.365,0a4.278,4.278,0,0,0,3.634-1.835,4.172,4.172,0,0,0,.8-2.515Q3530.307,905.606,3530.3,901.3Zm-8.657,7.906a3.607,3.607,0,1,1,3.612-3.594A3.618,3.618,0,0,1,3521.644,909.211Zm4.693-7.218a1.079,1.079,0,0,1,0-2.158,1.079,1.079,0,1,1,0,2.158Z" transform="translate(-3512.989 -896.941)" fill="#4e656d"/>
</svg>
