<svg xmlns="http://www.w3.org/2000/svg" xmlns:xlink="http://www.w3.org/1999/xlink" width="62.959" height="2602.296" viewBox="0 0 62.959 2602.296">
  <defs>
    <filter id="Path_107031" x="4.198" y="0" width="58.76" height="63.735" filterUnits="userSpaceOnUse">
      <feOffset input="SourceAlpha"/>
      <feGaussianBlur stdDeviation="5" result="blur"/>
      <feFlood flood-color="#34544f"/>
      <feComposite operator="in" in2="blur"/>
      <feComposite in="SourceGraphic"/>
    </filter>
    <filter id="Path_107031-2" x="3.219" y="594.486" width="58.76" height="63.735" filterUnits="userSpaceOnUse">
      <feOffset input="SourceAlpha"/>
      <feGaussianBlur stdDeviation="5" result="blur-2"/>
      <feFlood flood-color="#34544f"/>
      <feComposite operator="in" in2="blur-2"/>
      <feComposite in="SourceGraphic"/>
    </filter>
    <filter id="Path_107031-3" x="0" y="321.009" width="58.76" height="63.735" filterUnits="userSpaceOnUse">
      <feOffset input="SourceAlpha"/>
      <feGaussianBlur stdDeviation="5" result="blur-3"/>
      <feFlood flood-color="#34544f"/>
      <feComposite operator="in" in2="blur-3"/>
      <feComposite in="SourceGraphic"/>
    </filter>
    <filter id="Path_107031-4" x="1.021" y="946.031" width="58.76" height="63.736" filterUnits="userSpaceOnUse">
      <feOffset input="SourceAlpha"/>
      <feGaussianBlur stdDeviation="5" result="blur-4"/>
      <feFlood flood-color="#34544f"/>
      <feComposite operator="in" in2="blur-4"/>
      <feComposite in="SourceGraphic"/>
    </filter>
    <filter id="Path_107031-5" x="3.219" y="1369.891" width="58.761" height="63.736" filterUnits="userSpaceOnUse">
      <feOffset input="SourceAlpha"/>
      <feGaussianBlur stdDeviation="5" result="blur-5"/>
      <feFlood flood-color="#34544f"/>
      <feComposite operator="in" in2="blur-5"/>
      <feComposite in="SourceGraphic"/>
    </filter>
    <filter id="Path_107031-6" x="1.021" y="1740.884" width="58.76" height="63.735" filterUnits="userSpaceOnUse">
      <feOffset input="SourceAlpha"/>
      <feGaussianBlur stdDeviation="5" result="blur-6"/>
      <feFlood flood-color="#34544f"/>
      <feComposite operator="in" in2="blur-6"/>
      <feComposite in="SourceGraphic"/>
    </filter>
    <filter id="Path_107031-7" x="3.219" y="2111.876" width="58.761" height="63.736" filterUnits="userSpaceOnUse">
      <feOffset input="SourceAlpha"/>
      <feGaussianBlur stdDeviation="5" result="blur-7"/>
      <feFlood flood-color="#34544f"/>
      <feComposite operator="in" in2="blur-7"/>
      <feComposite in="SourceGraphic"/>
    </filter>
    <filter id="Path_107031-8" x="1.021" y="2461.561" width="58.76" height="63.735" filterUnits="userSpaceOnUse">
      <feOffset input="SourceAlpha"/>
      <feGaussianBlur stdDeviation="5" result="blur-8"/>
      <feFlood flood-color="#34544f"/>
      <feComposite operator="in" in2="blur-8"/>
      <feComposite in="SourceGraphic"/>
    </filter>
  </defs>
  <g id="Group_1127" data-name="Group 1127" transform="translate(-2502.5 -5056.921)">
    <path id="Path_112464" data-name="Path 112464" d="M0,0H2574.862V5H0Z" transform="translate(2531.5 7659.217) rotate(-90)" fill="#fff"/>
    <g id="Group_1089" data-name="Group 1089" transform="translate(2519.5 5105.656) rotate(-90)">
      <g id="Group_1118" data-name="Group 1118">
        <g transform="matrix(0, 1, -1, 0, 48.74, -17)" filter="url(#Path_107031)">
          <path id="Path_107031-9" data-name="Path 107031" d="M0,2.385S6.376.11,16.752.051A69.389,69.389,0,0,1,33.736,1.614C32.67,16.97,22.51,28.76,17.943,28.76S1.067,14.835,0,2.385Z" transform="translate(19.2 48.74) rotate(-90)" fill="#355651"/>
        </g>
        <path id="Path_107030" data-name="Path 107030" d="M0,1.822A42.342,42.342,0,0,1,12.8.039,53.018,53.018,0,0,1,25.778,1.233C24.963,12.967,17.2,21.977,13.711,21.977S.815,11.336,0,1.822Z" transform="translate(29.971 21.977) rotate(180)" fill="#6cd1c1"/>
      </g>
    </g>
    <g id="Group_1120" data-name="Group 1120" transform="translate(2518.521 5700.143) rotate(-90)">
      <g transform="matrix(0, 1, -1, 0, 643.22, -16.02)" filter="url(#Path_107031-2)">
        <path id="Path_107031-10" data-name="Path 107031" d="M0,2.385S6.376.11,16.752.051A69.39,69.39,0,0,1,33.736,1.614C32.67,16.97,22.51,28.76,17.943,28.76S1.067,14.835,0,2.385Z" transform="translate(18.22 643.22) rotate(-90)" fill="#355651"/>
      </g>
      <path id="Path_107030-2" data-name="Path 107030" d="M0,1.822A42.342,42.342,0,0,1,12.8.039,53.018,53.018,0,0,1,25.778,1.233C24.963,12.967,17.2,21.977,13.711,21.977S.815,11.336,0,1.822Z" transform="translate(29.971 21.977) rotate(180)" fill="#6cd1c1"/>
    </g>
    <g id="Group_1117" data-name="Group 1117" transform="translate(0.5)">
      <g id="Group_1103" data-name="Group 1103" transform="translate(2517 5426.665) rotate(-90)">
        <g id="Group_1119" data-name="Group 1119">
          <g transform="matrix(0, 1, -1, 0, 369.74, -15)" filter="url(#Path_107031-3)">
            <path id="Path_107031-11" data-name="Path 107031" d="M0,26.376S6.376,28.65,16.752,28.71a69.388,69.388,0,0,0,16.984-1.563C32.67,11.791,22.51,0,17.943,0S1.067,13.925,0,26.376Z" transform="translate(15 369.74) rotate(-90)" fill="#355651"/>
          </g>
          <path id="Path_107030-3" data-name="Path 107030" d="M0,20.154a42.342,42.342,0,0,0,12.8,1.783,53.019,53.019,0,0,0,12.978-1.195C24.963,9.01,17.2,0,13.711,0S.815,10.64,0,20.154Z" transform="translate(29.971 30.959) rotate(180)" fill="#6cd1c1"/>
        </g>
      </g>
    </g>
    <g id="Group_1099" data-name="Group 1099" transform="translate(2518.521 6051.688) rotate(-90)">
      <g id="Group_1121" data-name="Group 1121">
        <g transform="matrix(0, 1, -1, 0, 994.77, -16.02)" filter="url(#Path_107031-4)">
          <path id="Path_107031-12" data-name="Path 107031" d="M0,26.376S6.376,28.65,16.752,28.71a69.388,69.388,0,0,0,16.984-1.563C32.67,11.791,22.51,0,17.943,0S1.067,13.925,0,26.376Z" transform="translate(16.02 994.77) rotate(-90)" fill="#355651"/>
        </g>
        <path id="Path_107030-4" data-name="Path 107030" d="M0,20.154a42.342,42.342,0,0,0,12.8,1.783,53.019,53.019,0,0,0,12.978-1.195C24.963,9.01,17.2,0,13.711,0S.815,10.64,0,20.154Z" transform="translate(29.971 30.959) rotate(180)" fill="#6cd1c1"/>
      </g>
    </g>
    <g id="Group_1100" data-name="Group 1100" transform="translate(2518.521 6475.547) rotate(-90)">
      <g id="Group_1123" data-name="Group 1123">
        <g id="Group_1122" data-name="Group 1122">
          <g transform="matrix(0, 1, -1, 0, 1418.63, -16.02)" filter="url(#Path_107031-5)">
            <path id="Path_107031-13" data-name="Path 107031" d="M0,2.385S6.376.11,16.752.051A69.388,69.388,0,0,1,33.736,1.614C32.67,16.97,22.51,28.761,17.943,28.761S1.067,14.836,0,2.385Z" transform="translate(18.22 1418.63) rotate(-90)" fill="#355651"/>
          </g>
        </g>
        <path id="Path_107030-5" data-name="Path 107030" d="M0,1.822A42.342,42.342,0,0,1,12.8.039,53.018,53.018,0,0,1,25.778,1.233C24.963,12.967,17.2,21.977,13.711,21.977S.815,11.336,0,1.822Z" transform="translate(29.971 21.977) rotate(180)" fill="#6cd1c1"/>
      </g>
    </g>
    <g id="Group_1101" data-name="Group 1101" transform="translate(2518.521 6846.54) rotate(-90)">
      <g id="Group_1124" data-name="Group 1124">
        <g transform="matrix(0, 1, -1, 0, 1789.62, -16.02)" filter="url(#Path_107031-6)">
          <path id="Path_107031-14" data-name="Path 107031" d="M0,26.376S6.376,28.65,16.752,28.71a69.388,69.388,0,0,0,16.984-1.563C32.67,11.791,22.51,0,17.943,0S1.067,13.925,0,26.376Z" transform="translate(16.02 1789.62) rotate(-90)" fill="#355651"/>
        </g>
        <path id="Path_107030-6" data-name="Path 107030" d="M0,20.154a42.342,42.342,0,0,0,12.8,1.783,53.019,53.019,0,0,0,12.978-1.195C24.963,9.01,17.2,0,13.711,0S.815,10.64,0,20.154Z" transform="translate(29.971 30.959) rotate(180)" fill="#6cd1c1"/>
      </g>
    </g>
    <g id="Group_1126" data-name="Group 1126" transform="translate(2518.521 7217.533) rotate(-90)">
      <g transform="matrix(0, 1, -1, 0, 2160.61, -16.02)" filter="url(#Path_107031-7)">
        <path id="Path_107031-15" data-name="Path 107031" d="M0,2.385S6.376.11,16.752.051A69.388,69.388,0,0,1,33.736,1.614C32.67,16.97,22.51,28.761,17.943,28.761S1.067,14.836,0,2.385Z" transform="translate(18.22 2160.61) rotate(-90)" fill="#355651"/>
      </g>
    </g>
    <g id="Group_1104" data-name="Group 1104" transform="translate(2518.521 7567.217) rotate(-90)">
      <g transform="matrix(0, 1, -1, 0, 2510.3, -16.02)" filter="url(#Path_107031-8)">
        <path id="Path_107031-16" data-name="Path 107031" d="M0,26.376S6.376,28.65,16.752,28.71a69.388,69.388,0,0,0,16.984-1.563C32.67,11.791,22.51,0,17.943,0S1.067,13.925,0,26.376Z" transform="translate(16.02 2510.3) rotate(-90)" fill="#355651"/>
      </g>
      <path id="Path_107030-7" data-name="Path 107030" d="M0,20.154a42.342,42.342,0,0,0,12.8,1.783,53.019,53.019,0,0,0,12.978-1.195C24.963,9.01,17.2,0,13.711,0S.815,10.64,0,20.154Z" transform="translate(29.971 30.959) rotate(180)" fill="#6cd1c1"/>
    </g>
  </g>
</svg>
