<svg xmlns="http://www.w3.org/2000/svg" width="20.923" height="17.318" viewBox="0 0 20.923 17.318">
  <path id="Path_94299" data-name="Path 94299" d="M7479.18,2938.137a10.009,10.009,0,0,1-1.058,1.176c-.847.841-.893.931-.893,1.635a15.746,15.746,0,0,1-1.027,4.584,13.287,13.287,0,0,1-5.034,5.931,12.752,12.752,0,0,1-9.917,1.131,11.5,11.5,0,0,1-2.917-1.345,4.446,4.446,0,0,1,1.241-.123,8.463,8.463,0,0,0,4.052-1.131l.815-.488-.938-.32a4.578,4.578,0,0,1-2.826-2.507c-.091-.321-.06-.337.785-.337l.876-.014-.741-.352a4.877,4.877,0,0,1-2.071-1.956,5.456,5.456,0,0,1-.543-2.048,1.8,1.8,0,0,1,.71.168c1.042.383,1.179.291.574-.352a4.418,4.418,0,0,1-.937-4.525l.257-.733,1,.993a12.285,12.285,0,0,0,7.194,3.545l.756.091-.046-.749a4.377,4.377,0,0,1,2.95-4.4,5.167,5.167,0,0,1,2.646-.062,6.164,6.164,0,0,1,1.284.672l.741.5.815-.26a8.394,8.394,0,0,0,1.33-.521c.257-.138.483-.214.483-.169a4.446,4.446,0,0,1-1.027,1.636c-.636.688-.454.749.832.29.774-.255.79-.255.638.036Z" transform="translate(-7458.334 -2935.804)" fill="#4e656d"/>
</svg>
