<svg xmlns="http://www.w3.org/2000/svg" width="23.618" height="23.618" viewBox="0 0 23.618 23.618">
  <path id="OUTLINE_copy_2" d="M11.809,0A11.809,11.809,0,1,0,23.618,11.809,11.81,11.81,0,0,0,11.809,0Zm6.229,8.013a5.953,5.953,0,0,1-.635.706c-.508.5-.535.559-.535.981a9.452,9.452,0,0,1-.616,2.749,7.971,7.971,0,0,1-3.019,3.557,7.649,7.649,0,0,1-5.948.678,6.922,6.922,0,0,1-1.75-.807,2.664,2.664,0,0,1,.744-.074,5.075,5.075,0,0,0,2.43-.678l.489-.294-.562-.192a2.744,2.744,0,0,1-1.7-1.5c-.055-.193-.036-.2.471-.2l.526-.009-.444-.211A2.926,2.926,0,0,1,6.25,11.541a3.292,3.292,0,0,1-.326-1.228,1.076,1.076,0,0,1,.426.1c.625.23.707.174.345-.211A2.649,2.649,0,0,1,6.132,7.49l.154-.44.6.6A7.369,7.369,0,0,0,11.2,9.772l.453.055-.027-.449a2.625,2.625,0,0,1,1.768-2.64A3.1,3.1,0,0,1,14.981,6.7a3.686,3.686,0,0,1,.771.4l.444.3.489-.156a5,5,0,0,0,.8-.311c.154-.083.29-.128.29-.1a2.672,2.672,0,0,1-.616.981c-.382.413-.272.449.5.174.464-.153.474-.153.383.021Z" fill="#c7d0d8"/>
</svg>
